<svg width="73" height="20" viewBox="0 0 73 20" fill="none" xmlns="http://www.w3.org/2000/svg">
<path d="M18.6021 14.7225C20.8736 14.7225 22.5384 13.1141 22.5384 10.9132C22.5384 8.72636 20.8736 7.10388 18.6021 7.10388C16.3447 7.10388 14.6799 8.72636 14.6799 10.9132C14.6799 13.1141 16.3447 14.7225 18.6021 14.7225ZM18.6021 13.2693C17.2618 13.2693 16.2601 12.2535 16.2601 10.9132C16.2601 9.55876 17.2618 8.55706 18.6021 8.55706C19.9565 8.55706 20.9723 9.55876 20.9723 10.9132C20.9723 12.2535 19.9565 13.2693 18.6021 13.2693Z" fill="white"/>
<path d="M27.3648 14.7225C29.6363 14.7225 31.3011 13.1141 31.3011 10.9132C31.3011 8.72636 29.6363 7.10388 27.3648 7.10388C25.1074 7.10388 23.4426 8.72636 23.4426 10.9132C23.4426 13.1141 25.1074 14.7225 27.3648 14.7225ZM27.3648 13.2693C26.0245 13.2693 25.0228 12.2535 25.0228 10.9132C25.0228 9.55876 26.0245 8.55706 27.3648 8.55706C28.7192 8.55706 29.735 9.55876 29.735 10.9132C29.735 12.2535 28.7192 13.2693 27.3648 13.2693Z" fill="white"/>
<path d="M43.7198 14.7225C45.4974 14.7225 46.7531 13.9324 46.7531 12.5074C46.7531 9.72805 42.3512 10.6028 42.3512 9.16371C42.3512 8.6558 42.8874 8.34541 43.5646 8.34541C44.3687 8.34541 44.8767 8.78278 44.9613 9.40355L46.4991 9.36123C46.4427 8.09146 45.2576 7.11798 43.5787 7.11798C42.0267 7.11798 40.7852 7.93627 40.7852 9.27658C40.7852 11.9431 45.1306 11.1107 45.1306 12.578C45.1306 13.1282 44.5804 13.4527 43.7762 13.4527C42.8309 13.4527 42.1255 13.0153 42.0408 12.2535L40.4607 12.3099C40.5453 13.9888 42.0267 14.7225 43.7198 14.7225Z" fill="white"/>
<path d="M52.0014 7.10387C50.8728 7.10387 50.0686 7.58356 49.603 8.43007V4H47.9805V14.5814H49.603V10.6451C49.603 9.24836 50.3507 8.50061 51.5217 8.50061C52.4388 8.50061 53.3276 8.96619 53.3276 10.5322V14.5814H54.9642V10.2924C54.9642 8.04914 53.5534 7.10387 52.0014 7.10387Z" fill="white"/>
<path d="M60.0778 14.7225C62.3492 14.7225 64.014 13.1141 64.014 10.9132C64.014 8.72634 62.3492 7.10387 60.0778 7.10387C57.8204 7.10387 56.1556 8.72634 56.1556 10.9132C56.1556 13.1141 57.8204 14.7225 60.0778 14.7225ZM60.0778 13.2693C58.7375 13.2693 57.7358 12.2535 57.7358 10.9132C57.7358 9.55874 58.7375 8.55704 60.0778 8.55704C61.4322 8.55704 62.448 9.55874 62.448 10.9132C62.448 12.2535 61.4322 13.2693 60.0778 13.2693Z" fill="white"/>
<path d="M67.3775 7.25906V5.12868H65.7691V7.25906H64.6263V8.52883H65.7691V14.5814H67.3775V8.52883H69V7.25906H67.3775Z" fill="white"/>
<path d="M33.2751 14.5814V10.3378C33.2751 9.32744 33.7601 8.11499 35.7 8.11499" stroke="white" stroke-width="1.7"/>
<path d="M38.125 14.5814V10.3378C38.125 9.32744 37.64 8.11499 35.7001 8.11499" stroke="white" stroke-width="1.7"/>
<path d="M4.82901 13.8673C4.37107 13.0641 6.14897 11.1877 8.80005 9.67613C11.4511 8.1646 13.9715 7.59037 14.4294 8.39355" stroke="url(#paint0_linear_147_413)" stroke-width="0.8"/>
<path d="M7.52661 14.5814V10.3378C7.52661 9.32744 8.01159 8.11499 9.95151 8.11499" stroke="white" stroke-width="1.7"/>
<path d="M12.3765 14.5814V10.3378C12.3765 9.32744 11.8915 8.11499 9.95157 8.11499" stroke="white" stroke-width="1.7"/>
<path d="M14.4303 8.38942C14.8882 9.1926 13.1103 11.0691 10.4592 12.5806C7.80814 14.0921 5.28777 14.6663 4.82983 13.8632" stroke="url(#paint1_linear_147_413)" stroke-width="0.8"/>
<defs>
<linearGradient id="paint0_linear_147_413" x1="14.581" y1="8.11499" x2="-1.29105" y2="15.7571" gradientUnits="userSpaceOnUse">
<stop stop-color="#661CF1"/>
<stop offset="1" stop-color="#D0C3E9"/>
</linearGradient>
<linearGradient id="paint1_linear_147_413" x1="-0.703109" y1="18.1085" x2="14.5811" y2="10.4664" gradientUnits="userSpaceOnUse">
<stop stop-color="#D0C3E9"/>
<stop offset="1" stop-color="#661CF1"/>
</linearGradient>
</defs>
</svg>
